<mxfile host="app.diagrams.net" agent="Mozilla/5.0 (Windows NT 10.0; Win64; x64) AppleWebKit/537.36 (KHTML, like Gecko) Chrome/137.0.0.0 Safari/537.36 Edg/137.0.0.0" version="26.1.1">
  <diagram name="2025-6-4_双面背心" id="34OOnceuiEhTFBJKsdmN">
    <mxGraphModel dx="862" dy="556" grid="1" gridSize="10" guides="1" tooltips="1" connect="1" arrows="1" fold="1" page="1" pageScale="1" pageWidth="827" pageHeight="1169" math="0" shadow="0">
      <root>
        <mxCell id="0" />
        <mxCell id="1" parent="0" />
        <mxCell id="Bg70O8rT424wRMbpGLh--24" value="" style="rounded=0;whiteSpace=wrap;html=1;strokeColor=none;" vertex="1" parent="1">
          <mxGeometry x="200" y="220" width="440" height="180" as="geometry" />
        </mxCell>
        <mxCell id="Bg70O8rT424wRMbpGLh--2" value="" style="rounded=0;whiteSpace=wrap;html=1;" vertex="1" parent="1">
          <mxGeometry x="420" y="290" width="160" height="80" as="geometry" />
        </mxCell>
        <mxCell id="Bg70O8rT424wRMbpGLh--3" value="" style="rounded=0;whiteSpace=wrap;html=1;" vertex="1" parent="1">
          <mxGeometry x="440" y="230" width="10" height="60" as="geometry" />
        </mxCell>
        <mxCell id="Bg70O8rT424wRMbpGLh--4" value="" style="rounded=0;whiteSpace=wrap;html=1;" vertex="1" parent="1">
          <mxGeometry x="550" y="230" width="10" height="60" as="geometry" />
        </mxCell>
        <mxCell id="Bg70O8rT424wRMbpGLh--5" value="(back)" style="text;html=1;align=center;verticalAlign=middle;whiteSpace=wrap;rounded=0;" vertex="1" parent="1">
          <mxGeometry x="470" y="370" width="60" height="30" as="geometry" />
        </mxCell>
        <mxCell id="Bg70O8rT424wRMbpGLh--6" value="" style="endArrow=classic;startArrow=classic;html=1;rounded=0;exitX=0;exitY=0.5;exitDx=0;exitDy=0;entryX=1;entryY=0.5;entryDx=0;entryDy=0;" edge="1" parent="1" source="Bg70O8rT424wRMbpGLh--2" target="Bg70O8rT424wRMbpGLh--2">
          <mxGeometry width="50" height="50" relative="1" as="geometry">
            <mxPoint x="590" y="360" as="sourcePoint" />
            <mxPoint x="640" y="310" as="targetPoint" />
          </mxGeometry>
        </mxCell>
        <mxCell id="Bg70O8rT424wRMbpGLh--7" value="39cm&lt;div&gt;&lt;br&gt;&lt;/div&gt;" style="edgeLabel;html=1;align=center;verticalAlign=middle;resizable=0;points=[];labelBackgroundColor=none;" vertex="1" connectable="0" parent="Bg70O8rT424wRMbpGLh--6">
          <mxGeometry x="0.498" y="-2" relative="1" as="geometry">
            <mxPoint x="-40" y="-2" as="offset" />
          </mxGeometry>
        </mxCell>
        <mxCell id="Bg70O8rT424wRMbpGLh--8" value="" style="endArrow=classic;startArrow=classic;html=1;rounded=0;" edge="1" parent="1">
          <mxGeometry width="50" height="50" relative="1" as="geometry">
            <mxPoint x="590" y="370" as="sourcePoint" />
            <mxPoint x="590" y="290" as="targetPoint" />
          </mxGeometry>
        </mxCell>
        <mxCell id="Bg70O8rT424wRMbpGLh--9" value="25.5cm" style="edgeLabel;html=1;align=center;verticalAlign=middle;resizable=0;points=[];labelBackgroundColor=none;" vertex="1" connectable="0" parent="Bg70O8rT424wRMbpGLh--8">
          <mxGeometry x="0.0408" y="-6" relative="1" as="geometry">
            <mxPoint x="14" y="1" as="offset" />
          </mxGeometry>
        </mxCell>
        <mxCell id="Bg70O8rT424wRMbpGLh--10" value="" style="endArrow=classic;startArrow=classic;html=1;rounded=0;" edge="1" parent="1">
          <mxGeometry width="50" height="50" relative="1" as="geometry">
            <mxPoint x="410" y="370" as="sourcePoint" />
            <mxPoint x="410" y="230" as="targetPoint" />
          </mxGeometry>
        </mxCell>
        <mxCell id="Bg70O8rT424wRMbpGLh--11" value="45cm" style="edgeLabel;html=1;align=center;verticalAlign=middle;resizable=0;points=[];labelBackgroundColor=none;" vertex="1" connectable="0" parent="Bg70O8rT424wRMbpGLh--10">
          <mxGeometry x="0.171" relative="1" as="geometry">
            <mxPoint x="-16" y="6" as="offset" />
          </mxGeometry>
        </mxCell>
        <mxCell id="Bg70O8rT424wRMbpGLh--15" value="" style="shape=loopLimit;whiteSpace=wrap;html=1;size=40;" vertex="1" parent="1">
          <mxGeometry x="210" y="260" width="160" height="110" as="geometry" />
        </mxCell>
        <mxCell id="Bg70O8rT424wRMbpGLh--16" value="" style="endArrow=classic;startArrow=classic;html=1;rounded=0;exitX=0.75;exitY=1;exitDx=0;exitDy=0;entryX=0.75;entryY=0;entryDx=0;entryDy=0;elbow=vertical;" edge="1" parent="1" source="Bg70O8rT424wRMbpGLh--15" target="Bg70O8rT424wRMbpGLh--15">
          <mxGeometry width="50" height="50" relative="1" as="geometry">
            <mxPoint x="380" y="230" as="sourcePoint" />
            <mxPoint x="430" y="180" as="targetPoint" />
          </mxGeometry>
        </mxCell>
        <mxCell id="Bg70O8rT424wRMbpGLh--17" value="33.5cm" style="edgeLabel;html=1;align=center;verticalAlign=middle;resizable=0;points=[];labelBackgroundColor=none;" vertex="1" connectable="0" parent="Bg70O8rT424wRMbpGLh--16">
          <mxGeometry x="0.2209" y="-1" relative="1" as="geometry">
            <mxPoint x="-21" y="12" as="offset" />
          </mxGeometry>
        </mxCell>
        <mxCell id="Bg70O8rT424wRMbpGLh--20" value="" style="shape=parallelogram;perimeter=parallelogramPerimeter;whiteSpace=wrap;html=1;fixedSize=1;size=10;rotation=-180;flipV=1;" vertex="1" parent="1">
          <mxGeometry x="240" y="230" width="20" height="30" as="geometry" />
        </mxCell>
        <mxCell id="Bg70O8rT424wRMbpGLh--21" value="" style="shape=parallelogram;perimeter=parallelogramPerimeter;whiteSpace=wrap;html=1;fixedSize=1;size=10;rotation=-180;flipV=0;" vertex="1" parent="1">
          <mxGeometry x="320" y="230" width="20" height="30" as="geometry" />
        </mxCell>
        <mxCell id="Bg70O8rT424wRMbpGLh--22" value="(front&lt;span style=&quot;background-color: transparent; color: light-dark(rgb(0, 0, 0), rgb(255, 255, 255));&quot;&gt;)&lt;/span&gt;" style="text;html=1;align=center;verticalAlign=middle;whiteSpace=wrap;rounded=0;" vertex="1" parent="1">
          <mxGeometry x="260" y="370" width="60" height="30" as="geometry" />
        </mxCell>
        <mxCell id="Bg70O8rT424wRMbpGLh--23" value="" style="rhombus;whiteSpace=wrap;html=1;" vertex="1" parent="1">
          <mxGeometry x="285" y="270" width="10" height="20" as="geometry" />
        </mxCell>
      </root>
    </mxGraphModel>
  </diagram>
</mxfile>
